<svg width="100" height="100" viewBox="0 0 100 100" fill="none" xmlns="http://www.w3.org/2000/svg">
    <path d="M58.7403 78.0676L59.7622 78.0661L59.7365 60.5215L58.7146 60.523L58.7403 78.0676Z" fill="#9083B7" stroke="#9083B7" stroke-width="0.53833" stroke-miterlimit="2"/>
    <path d="M47.0141 60.5815H45.7319L37.6365 78.0545H39.0192L46.3604 61.9793L53.7267 78.0545H55.1095L47.0141 60.5815Z" fill="#7587D0" stroke="#7587D0" stroke-width="0.53833" stroke-miterlimit="2"/>
    <path d="M16.8653 50C18.1929 51.0884 19.2631 52.457 19.9993 54.0077C21.875 57.8762 21.875 62.6099 21.875 67.1875C21.875 76.685 22.2733 81.25 31.25 81.25C32.0788 81.25 32.8737 81.5792 33.4597 82.1653C34.0458 82.7513 34.375 83.5462 34.375 84.375C34.375 85.2038 34.0458 85.9987 33.4597 86.5847C32.8737 87.1708 32.0788 87.5 31.25 87.5C24.4213 87.5 19.7952 85.1002 17.5007 80.3673C15.625 76.4988 15.625 71.7651 15.625 67.1875C15.625 57.69 15.2267 53.125 6.25 53.125C5.4212 53.125 4.62634 52.7958 4.04029 52.2097C3.45424 51.6237 3.125 50.8288 3.125 50C3.125 49.1712 3.45424 48.3763 4.04029 47.7903C4.62634 47.2042 5.4212 46.875 6.25 46.875C15.2267 46.875 15.625 42.31 15.625 32.8125C15.625 28.2349 15.625 23.5012 17.5007 19.6327C19.7952 14.8998 24.4213 12.5 31.25 12.5C32.0788 12.5 32.8737 12.8292 33.4597 13.4153C34.0458 14.0013 34.375 14.7962 34.375 15.625C34.375 16.4538 34.0458 17.2487 33.4597 17.8347C32.8737 18.4208 32.0788 18.75 31.25 18.75C22.2733 18.75 21.875 23.315 21.875 32.8125C21.875 37.3901 21.875 42.1238 19.9993 45.9923C19.2631 47.543 18.1929 48.9116 16.8653 50ZM93.75 46.875C84.7733 46.875 84.375 42.31 84.375 32.8125C84.375 28.2349 84.375 23.5012 82.4993 19.6327C80.2048 14.8998 75.5787 12.5 68.75 12.5C67.9212 12.5 67.1263 12.8292 66.5403 13.4153C65.9542 14.0013 65.625 14.7962 65.625 15.625C65.625 16.4538 65.9542 17.2487 66.5403 17.8347C67.1263 18.4208 67.9212 18.75 68.75 18.75C77.7267 18.75 78.125 23.315 78.125 32.8125C78.125 37.3901 78.125 42.1238 80.0007 45.9923C80.7369 47.543 81.8071 48.9116 83.1347 50C81.8071 51.0884 80.7369 52.457 80.0007 54.0077C78.125 57.8762 78.125 62.6099 78.125 67.1875C78.125 76.685 77.7267 81.25 68.75 81.25C67.9212 81.25 67.1263 81.5792 66.5403 82.1653C65.9542 82.7513 65.625 83.5462 65.625 84.375C65.625 85.2038 65.9542 85.9987 66.5403 86.5847C67.1263 87.1708 67.9212 87.5 68.75 87.5C75.5787 87.5 80.2048 85.1002 82.4993 80.3673C84.375 76.4988 84.375 71.7651 84.375 67.1875C84.375 57.69 84.7733 53.125 93.75 53.125C94.5788 53.125 95.3737 52.7958 95.9597 52.2097C96.5458 51.6237 96.875 50.8288 96.875 50C96.875 49.1712 96.5458 48.3763 95.9597 47.7903C95.3737 47.2042 94.5788 46.875 93.75 46.875Z" fill="url(#paint0_linear_280_2)"/>
    <g clip-path="url(#clip0_280_2)">
        <path d="M66.3462 29.0318L50.6538 20.1726C50.2485 19.9425 49.7515 19.9425 49.3462 20.1726L33.6538 29.0318C33.2485 29.2619 33 29.6838 33 30.144V47.8624C33 48.3226 33.2485 48.7445 33.6538 48.9746L49.3462 57.8338C49.5423 57.9489 49.7777 58 50 58C50.2223 58 50.4577 57.9489 50.6538 57.8338L66.3462 48.9746C66.7515 48.7445 67 48.3226 67 47.8624V30.144C67 29.6838 66.7515 29.2619 66.3462 29.0318ZM50 22.7549L63.0769 30.1312L60.37 31.6653L53.2692 27.6511C53.0731 27.5361 52.8377 27.4849 52.6154 27.4849C52.3931 27.4849 52.1577 27.5361 51.9615 27.6511L44.1154 32.0743C43.71 32.3045 43.4615 32.7263 43.4615 33.1865V33.813L36.9231 30.1312L50 22.7549ZM59.1538 41.4449L52.6154 45.1394L51.3077 44.4108V39.7447L53.2431 38.658L59.1538 35.3214V41.4577V41.4449ZM50 37.5203L47.5808 36.1524L46.0638 35.2959V33.928L52.6023 30.2335L57.7415 33.1354L53.23 35.6794L49.9869 37.5075L50 37.5203ZM46.0769 40.4222V38.2489L46.6785 38.5941L48.6923 39.7319V42.9278L46.0769 41.4449V40.4222ZM35.6154 32.3428L43.4615 36.766V41.1253L37.1323 44.7687L35.6154 45.6252V32.3428ZM48.6923 54.4844L36.9231 47.8368L38.6885 46.8397L44.4946 43.4903L48.6923 45.8553V54.4717V54.4844ZM51.3077 54.4844V47.3383L51.9615 47.709C52.1577 47.8241 52.3931 47.8752 52.6154 47.8752C52.8377 47.8752 53.0731 47.8241 53.2692 47.709L58.0554 45.0116L62.8023 47.6962L63.0769 47.8496L51.3077 54.4972V54.4844ZM64.3846 45.638L63.9923 45.4079L60.6708 43.5287L61.1154 43.2858C61.5208 43.0557 61.7692 42.6338 61.7692 42.1736V33.8257L64.3846 32.3428V45.6252V45.638Z" fill="url(#paint1_linear_280_2)"/>
    </g>
    <defs>
        <linearGradient id="paint0_linear_280_2" x1="81.5217" y1="91.3044" x2="69.0033" y2="-2.81665" gradientUnits="userSpaceOnUse">
            <stop offset="0.3" stop-color="#9A5BA6"/>
            <stop offset="0.6" stop-color="#53B1F8"/>
            <stop offset="0.9" stop-color="#265AA0"/>
        </linearGradient>
        <linearGradient id="paint1_linear_280_2" x1="33" y1="20" x2="62.9177" y2="51.0324" gradientUnits="userSpaceOnUse">
            <stop offset="0.298077" stop-color="#9A5BA6"/>
            <stop offset="0.6" stop-color="#53B1F8"/>
            <stop offset="0.9" stop-color="#265AA0"/>
        </linearGradient>
        <clipPath id="clip0_280_2">
            <rect width="34" height="38" fill="white" transform="translate(33 20)"/>
        </clipPath>
    </defs>
</svg>